<svg width="47" height="47" viewBox="0 0 47 47" fill="none" xmlns="http://www.w3.org/2000/svg">
<path d="M30.967 23.498C30.967 19.3792 27.6159 16.0281 23.4971 16.0281C19.3782 16.0281 16.0271 19.3792 16.0271 23.498C16.0271 27.6169 19.3782 30.968 23.4971 30.968C27.6159 30.968 30.967 27.6169 30.967 23.498ZM23.4971 24.8162C22.7702 24.8162 22.1789 24.2249 22.1789 23.498C22.1789 22.7712 22.7703 22.1798 23.4971 22.1798C24.224 22.1798 24.8153 22.7712 24.8153 23.498C24.8153 24.2249 24.224 24.8162 23.4971 24.8162Z" fill="black"/>
<path d="M20.6856 28.4693C21.5161 28.9407 22.4758 29.2103 23.4971 29.2103C24.5185 29.2103 25.4782 28.9407 26.3087 28.4693M25.5956 25.7447C26.4142 26.1022 27.1377 26.663 27.6863 27.3777C28.631 26.3583 29.2095 24.9945 29.2095 23.498C29.2095 20.3481 26.6467 17.7857 23.4971 17.7857C20.3472 17.7857 17.7848 20.3484 17.7848 23.498C17.7848 24.9945 18.3636 26.3579 19.3083 27.3774C19.8569 26.6631 20.5804 26.1019 21.3987 25.7447C20.7976 25.1829 20.4213 24.3837 20.4213 23.498C20.4213 21.802 21.8011 20.4222 23.4971 20.4222M30.967 23.498C30.967 19.3792 27.6159 16.0281 23.4971 16.0281C19.3782 16.0281 16.0271 19.3792 16.0271 23.498C16.0271 27.6169 19.3782 30.968 23.4971 30.968C27.6159 30.968 30.967 27.6169 30.967 23.498ZM23.4971 24.8162C22.7702 24.8162 22.1789 24.2249 22.1789 23.498C22.1789 22.7712 22.7703 22.1798 23.4971 22.1798C24.224 22.1798 24.8153 22.7712 24.8153 23.498C24.8153 24.2249 24.224 24.8162 23.4971 24.8162Z" stroke="black" stroke-width="1.5"/>
<path d="M35.8005 23.4981C35.8005 16.7139 30.2813 11.1951 23.4975 11.1951C16.7137 11.1951 11.1945 16.7143 11.1945 23.4981C11.1945 30.2819 16.7137 35.8011 23.4975 35.8011C30.2813 35.8011 35.8005 30.2819 35.8005 23.4981ZM12.9509 23.4981C12.9509 17.6832 17.6818 12.9523 23.4967 12.9523C29.3116 12.9523 34.0425 17.6832 34.0425 23.4981C34.0425 29.313 29.3116 34.0439 23.4967 34.0439C17.6818 34.0439 12.9509 29.313 12.9509 23.4981Z" fill="black" stroke="black" stroke-width="1.5"/>
<path d="M6.23856 14.5482C6.37697 14.6282 6.52794 14.6662 6.67702 14.6662C6.98084 14.6662 7.27618 14.5087 7.43877 14.2265C10.2322 9.38827 15.1256 6.04455 20.6256 5.17839C21.0701 6.33156 22.1896 7.15168 23.4972 7.15168C25.1932 7.15168 26.573 5.77193 26.573 4.07584C26.573 2.37975 25.1932 1 23.4972 1C22.0258 1 20.7923 2.03859 20.4913 3.42083C17.5874 3.85711 14.7755 4.93212 12.3246 6.54786C9.7026 8.27632 7.48674 10.6274 5.91648 13.3471C5.67386 13.7676 5.81792 14.305 6.23819 14.5476L6.23856 14.5482ZM23.4975 2.75779C24.2244 2.75779 24.8157 3.34911 24.8157 4.07599C24.8157 4.80288 24.2244 5.3942 23.4975 5.3942C22.7706 5.3942 22.1793 4.80288 22.1793 4.07599C22.1793 3.34911 22.7706 2.75779 23.4975 2.75779Z" fill="black" stroke="black" stroke-width="1.5"/>
<path d="M14.2257 39.5566C9.38715 36.7632 6.04294 31.8698 5.17839 26.3697C6.33124 25.9256 7.15168 24.8057 7.15168 23.4982C7.15168 21.8021 5.77193 20.4224 4.07584 20.4224C2.37975 20.4224 1 21.8021 1 23.4982C1 24.9696 2.03859 26.2031 3.42083 26.5037C3.85711 29.4076 4.93212 32.2195 6.54786 34.6704C8.27632 37.2924 10.6274 39.5083 13.3471 41.0786C13.4855 41.1586 13.6365 41.1966 13.7855 41.1966C14.0893 41.1966 14.3847 41.039 14.5473 40.7569C14.7899 40.3366 14.6458 39.7993 14.2256 39.5564L14.2257 39.5566ZM2.75747 23.498C2.75747 22.7711 3.34879 22.1798 4.07568 22.1798C4.80256 22.1798 5.39388 22.7712 5.39388 23.498C5.39388 24.2249 4.80256 24.8162 4.07568 24.8162C3.34879 24.8162 2.75747 24.2249 2.75747 23.498Z" fill="black" stroke="black" stroke-width="1.5"/>
<path d="M40.7561 32.4484C40.3355 32.2058 39.7982 32.3498 39.5556 32.7701C36.7622 37.6086 31.8688 40.9529 26.3687 41.8182C25.9246 40.6654 24.8047 39.8449 23.4972 39.8449C21.8011 39.8449 20.4214 41.2247 20.4214 42.9208C20.4214 44.6168 21.8011 45.9966 23.4972 45.9966C24.9686 45.9966 26.2021 44.958 26.5031 43.5758C29.407 43.1395 32.2189 42.0645 34.6698 40.4487C37.2918 38.7203 39.5076 36.3692 41.0779 33.6495C41.3205 33.2293 41.1765 32.6916 40.7562 32.449L40.7561 32.4484ZM23.4971 44.2388C22.7702 44.2388 22.1789 43.6475 22.1789 42.9206C22.1789 42.1937 22.7703 41.6024 23.4971 41.6024C24.224 41.6024 24.8154 42.1937 24.8154 42.9206C24.8154 43.6475 24.224 44.2388 23.4971 44.2388Z" fill="black" stroke="black" stroke-width="1.5"/>
<path d="M43.5741 20.4922C43.1379 17.5883 42.0628 14.7764 40.4471 12.3255C38.7186 9.70352 36.3676 7.48765 33.6479 5.91739C33.2273 5.67478 32.69 5.81884 32.4474 6.2391C32.2048 6.65937 32.3488 7.1967 32.7691 7.4396C37.6076 10.233 40.9519 15.1264 41.8172 20.6265C40.6644 21.0706 39.8439 22.1905 39.8439 23.498C39.8439 25.1941 41.2237 26.5738 42.9198 26.5738C44.6158 26.5738 45.9956 25.1941 45.9956 23.498C45.9956 22.0266 44.957 20.7931 43.5748 20.4921L43.5741 20.4922ZM42.9191 24.816C42.1922 24.816 41.6009 24.2246 41.6009 23.4978C41.6009 22.7709 42.1922 22.1795 42.9191 22.1795C43.646 22.1795 44.2373 22.7709 44.2373 23.4978C44.2373 24.2246 43.646 24.816 42.9191 24.816Z" fill="black" stroke="black" stroke-width="1.5"/>
</svg>
