<svg width="18" height="15" viewBox="0 0 18 15" fill="none" xmlns="http://www.w3.org/2000/svg">
<path d="M14.9547 3.08252C14.9544 3.08247 14.9541 3.08238 14.9538 3.08235L10.2681 2.25715C9.91704 2.19534 9.59825 2.40277 9.55607 2.72057C9.51389 3.03833 9.76428 3.34604 10.1153 3.40788L13.2613 3.96189L2.57921 10.8766C2.30064 11.057 2.25133 11.4211 2.46908 11.6899C2.68684 11.9588 3.08917 12.0305 3.36775 11.8502L14.0498 4.93547L13.6568 7.78035C13.613 8.09781 13.8619 8.4065 14.2127 8.46985C14.5636 8.53322 14.8835 8.32714 14.9274 8.00974L15.5128 3.7724C15.5128 3.77216 15.5128 3.7719 15.5129 3.77164C15.5563 3.45348 15.3052 3.14469 14.9547 3.08252Z" fill="white"/>
</svg>
