<svg width="25" height="21" viewBox="0 0 25 21" fill="none" xmlns="http://www.w3.org/2000/svg">
<path d="M8.04983 20.625H4.8717V7.575L2.81858 2.625H0.371704V0.375H4.33733L6.19358 4.875H24.6436L20.6217 12.7781C21.578 12.9281 22.3797 13.3687 23.027 14.1C23.6735 14.8313 23.9967 15.6938 23.9967 16.6875C23.9967 17.775 23.6172 18.7031 22.8582 19.4719C22.0985 20.2406 21.1748 20.625 20.0873 20.625C18.9811 20.625 18.0485 20.2406 17.2895 19.4719C16.5297 18.7031 16.1498 17.775 16.1498 16.6875C16.1498 16.3125 16.1967 15.9656 16.2905 15.6469C16.3842 15.3281 16.5155 15.0188 16.6842 14.7188L12.9998 14.3812L8.04983 20.625ZM18.203 12.6094L20.9873 7.125L7.1217 7.15312L9.06233 11.7656L18.203 12.6094ZM7.1217 12.4125V18.3469L10.4686 14.1562L7.74045 13.9031L7.1217 12.4125ZM20.0592 18.375C20.5467 18.375 20.9498 18.2108 21.2686 17.8822C21.5873 17.5545 21.7467 17.1562 21.7467 16.6875C21.7467 16.2 21.5873 15.7969 21.2686 15.4781C20.9498 15.1594 20.5467 15 20.0592 15C19.5905 15 19.1922 15.1594 18.8645 15.4781C18.536 15.7969 18.3717 16.2 18.3717 16.6875C18.3717 17.1562 18.536 17.5545 18.8645 17.8822C19.1922 18.2108 19.5905 18.375 20.0592 18.375ZM18.203 12.6094L9.06233 11.7656L18.203 12.6094Z" fill="#3734A9"/>
</svg>
