<svg width="21" height="21" viewBox="0 0 21 21" fill="none" xmlns="http://www.w3.org/2000/svg">
<path d="M14.6842 12.75H13.7955L13.4805 12.4463C14.6211 11.1233 15.2479 9.43428 15.2467 7.6875C15.2467 6.24123 14.8178 4.82743 14.0143 3.6249C13.2108 2.42236 12.0688 1.4851 10.7326 0.931634C9.39639 0.378168 7.9261 0.233357 6.50761 0.515511C5.08912 0.797665 3.78616 1.49411 2.76349 2.51678C1.74082 3.53946 1.04437 4.84242 0.762215 6.2609C0.480061 7.67939 0.624872 9.14969 1.17834 10.4859C1.7318 11.8221 2.66907 12.9641 3.8716 13.7676C5.07413 14.5711 6.48793 15 7.93421 15C9.74546 15 11.4105 14.3363 12.693 13.2338L12.9967 13.5488V14.4375L18.6217 20.0513L20.298 18.375L14.6842 12.75ZM7.93421 12.75C5.13296 12.75 2.87171 10.4888 2.87171 7.6875C2.87171 4.88625 5.13296 2.625 7.93421 2.625C10.7355 2.625 12.9967 4.88625 12.9967 7.6875C12.9967 10.4888 10.7355 12.75 7.93421 12.75Z" fill="#3734A9"/>
</svg>
