<svg width="48" height="47" viewBox="0 0 48 47" fill="none" xmlns="http://www.w3.org/2000/svg">
<path d="M31.7203 23.4998C31.7203 19.3809 28.3692 16.0298 24.2504 16.0298C20.1315 16.0298 16.7804 19.3809 16.7804 23.4998C16.7804 27.6186 20.1315 30.9697 24.2504 30.9697C28.3692 30.9697 31.7203 27.6186 31.7203 23.4998ZM24.2504 24.818C23.5235 24.818 22.9322 24.2266 22.9322 23.4998C22.9322 22.7729 23.5236 22.1815 24.2504 22.1815C24.9773 22.1815 25.5686 22.7729 25.5686 23.4998C25.5686 24.2266 24.9773 24.818 24.2504 24.818Z" fill="#3734A9"/>
<path d="M21.4389 28.471C22.2694 28.9424 23.2291 29.2121 24.2504 29.2121C25.2718 29.2121 26.2315 28.9424 27.062 28.471M26.3489 25.7464C27.1675 26.1039 27.891 26.6647 28.4396 27.3794C29.3843 26.36 29.9628 24.9963 29.9628 23.4998C29.9628 20.3498 27.4 17.7874 24.2504 17.7874C21.1005 17.7874 18.5381 20.3502 18.5381 23.4998C18.5381 24.9963 19.1169 26.3596 20.0616 27.3791C20.6102 26.6648 21.3337 26.1036 22.152 25.7464C21.5509 25.1846 21.1746 24.3854 21.1746 23.4998C21.1746 21.8037 22.5544 20.4239 24.2504 20.4239M31.7203 23.4998C31.7203 19.3809 28.3692 16.0298 24.2504 16.0298C20.1315 16.0298 16.7804 19.3809 16.7804 23.4998C16.7804 27.6186 20.1315 30.9697 24.2504 30.9697C28.3692 30.9697 31.7203 27.6186 31.7203 23.4998ZM24.2504 24.818C23.5235 24.818 22.9322 24.2266 22.9322 23.4998C22.9322 22.7729 23.5236 22.1815 24.2504 22.1815C24.9773 22.1815 25.5686 22.7729 25.5686 23.4998C25.5686 24.2266 24.9773 24.818 24.2504 24.818Z" stroke="#3734A9" stroke-width="2"/>
<path d="M36.5538 23.4998C36.5538 16.7156 31.0346 11.1968 24.2508 11.1968C17.467 11.1968 11.9478 16.716 11.9478 23.4998C11.9478 30.2836 17.467 35.8029 24.2508 35.8029C31.0346 35.8029 36.5538 30.2836 36.5538 23.4998ZM13.7042 23.4998C13.7042 17.6849 18.435 12.954 24.25 12.954C30.0649 12.954 34.7958 17.6849 34.7958 23.4998C34.7958 29.3148 30.0649 34.0456 24.25 34.0456C18.435 34.0456 13.7042 29.3148 13.7042 23.4998Z" fill="#3734A9" stroke="#3734A9" stroke-width="2"/>
<path d="M6.99185 14.5499C7.13027 14.6299 7.28124 14.6679 7.43032 14.6679C7.73413 14.6679 8.02948 14.5104 8.19207 14.2282C10.9855 9.38998 15.8789 6.04626 21.3789 5.1801C21.8234 6.33327 22.9429 7.15339 24.2505 7.15339C25.9465 7.15339 27.3263 5.77364 27.3263 4.07755C27.3263 2.38146 25.9465 1.00171 24.2505 1.00171C22.7791 1.00171 21.5456 2.0403 21.2446 3.42254C18.3407 3.85881 15.5288 4.93383 13.0779 6.54957C10.4559 8.27803 8.24003 10.6291 6.66977 13.3488C6.42716 13.7694 6.57122 14.3067 6.99148 14.5493L6.99185 14.5499ZM24.2508 2.7595C24.9777 2.7595 25.569 3.35082 25.569 4.0777C25.569 4.80459 24.9777 5.39591 24.2508 5.39591C23.5239 5.39591 22.9326 4.80459 22.9326 4.0777C22.9326 3.35082 23.5239 2.7595 24.2508 2.7595Z" fill="#3734A9" stroke="#3734A9" stroke-width="2"/>
<path d="M14.979 39.5583C10.1404 36.7649 6.79624 31.8715 5.93168 26.3714C7.08453 25.9273 7.90497 24.8074 7.90497 23.4999C7.90497 21.8038 6.52522 20.4241 4.82914 20.4241C3.13305 20.4241 1.7533 21.8038 1.7533 23.4999C1.7533 24.9713 2.79189 26.2048 4.17413 26.5054C4.6104 29.4093 5.68541 32.2212 7.30115 34.6721C9.02962 37.2941 11.3807 39.51 14.1004 41.0803C14.2388 41.1603 14.3897 41.1983 14.5388 41.1983C14.8426 41.1983 15.138 41.0407 15.3006 40.7586C15.5432 40.3383 15.3991 39.801 14.9789 39.5581L14.979 39.5583ZM3.51077 23.4998C3.51077 22.7728 4.10209 22.1815 4.82897 22.1815C5.55586 22.1815 6.14718 22.7729 6.14718 23.4998C6.14718 24.2266 5.55586 24.818 4.82897 24.818C4.10209 24.818 3.51077 24.2266 3.51077 23.4998Z" fill="#3734A9" stroke="#3734A9" stroke-width="2"/>
<path d="M41.5094 32.4501C41.0888 32.2075 40.5515 32.3516 40.3089 32.7718C37.5155 37.6104 32.6221 40.9546 27.122 41.8199C26.6779 40.6671 25.558 39.8466 24.2505 39.8466C22.5544 39.8466 21.1747 41.2264 21.1747 42.9225C21.1747 44.6186 22.5544 45.9983 24.2505 45.9983C25.7219 45.9983 26.9554 44.9597 27.2564 43.5775C30.1603 43.1412 32.9722 42.0662 35.423 40.4504C38.0451 38.722 40.2609 36.3709 41.8312 33.6512C42.0738 33.231 41.9298 32.6933 41.5095 32.4507L41.5094 32.4501ZM24.2504 44.2405C23.5235 44.2405 22.9322 43.6492 22.9322 42.9223C22.9322 42.1954 23.5236 41.6041 24.2504 41.6041C24.9773 41.6041 25.5686 42.1954 25.5686 42.9223C25.5686 43.6492 24.9773 44.2405 24.2504 44.2405Z" fill="#3734A9" stroke="#3734A9" stroke-width="2"/>
<path d="M44.3274 20.4939C43.8912 17.59 42.8161 14.7781 41.2004 12.3273C39.4719 9.70523 37.1208 7.48936 34.4012 5.9191C33.9806 5.67649 33.4433 5.82055 33.2007 6.24081C32.9581 6.66108 33.1021 7.19841 33.5224 7.44131C38.3609 10.2347 41.7052 15.1281 42.5705 20.6282C41.4177 21.0723 40.5972 22.1922 40.5972 23.4997C40.5972 25.1958 41.977 26.5755 43.6731 26.5755C45.3691 26.5755 46.7489 25.1958 46.7489 23.4997C46.7489 22.0283 45.7103 20.7948 44.3281 20.4938L44.3274 20.4939ZM43.6724 24.8177C42.9455 24.8177 42.3542 24.2263 42.3542 23.4995C42.3542 22.7726 42.9455 22.1813 43.6724 22.1813C44.3993 22.1813 44.9906 22.7726 44.9906 23.4995C44.9906 24.2263 44.3993 24.8177 43.6724 24.8177Z" fill="#3734A9" stroke="#3734A9" stroke-width="2"/>
</svg>
