<svg width="25" height="21" viewBox="0 0 25 21" fill="none" xmlns="http://www.w3.org/2000/svg">
<path d="M7.80312 20.625H4.625V7.575L2.57187 2.625H0.125V0.375H4.09063L5.94688 4.875H24.3969L20.375 12.7781C21.3312 12.9281 22.133 13.3687 22.7803 14.1C23.4268 14.8313 23.75 15.6938 23.75 16.6875C23.75 17.775 23.3705 18.7031 22.6115 19.4719C21.8518 20.2406 20.9281 20.625 19.8406 20.625C18.7344 20.625 17.8018 20.2406 17.0427 19.4719C16.283 18.7031 15.9031 17.775 15.9031 16.6875C15.9031 16.3125 15.95 15.9656 16.0437 15.6469C16.1375 15.3281 16.2687 15.0188 16.4375 14.7188L12.7531 14.3812L7.80312 20.625ZM17.9563 12.6094L20.7406 7.125L6.875 7.15312L8.81563 11.7656L17.9563 12.6094ZM6.875 12.4125V18.3469L10.2219 14.1562L7.49375 13.9031L6.875 12.4125ZM19.8125 18.375C20.3 18.375 20.7031 18.2108 21.0219 17.8822C21.3406 17.5545 21.5 17.1562 21.5 16.6875C21.5 16.2 21.3406 15.7969 21.0219 15.4781C20.7031 15.1594 20.3 15 19.8125 15C19.3438 15 18.9455 15.1594 18.6178 15.4781C18.2892 15.7969 18.125 16.2 18.125 16.6875C18.125 17.1562 18.2892 17.5545 18.6178 17.8822C18.9455 18.2108 19.3438 18.375 19.8125 18.375ZM17.9563 12.6094L8.81563 11.7656L17.9563 12.6094Z" fill="white"/>
</svg>
